# xmcd CD database file
#
# Track frame offsets:
#	150
#	25678
#	40773
#	54989
#	71634
#	95283
#	111803
#	122445
#	137628
#	164173
#	183326
#	202087
#	238016
#	255784
#	276998
#	292581
#	303239
#
# Disc length: 4180 seconds
#
# Revision: 4
# Processed by: cddbd v1.5.2PL0 Copyright (c) Steve Scherf et al.
# Submitted via: CDex 1.51
#
DISCID=e5105211
DTITLE=¾K·RÀï¤h - Jazz Bistro
DYEAR=2002
DGENRE=Jazz
TTITLE0=01.Diana Krall-They Can't Take That Away From Me
TTITLE1=02.Robbie Willams-Mr. Bojangles
TTITLE2=03.Norah Jones-Don't Know Why
TTITLE3=04.Laura Fygi-Drem A Little Dream
TTITLE4=05.George Michael-Miss Sarajevo
TTITLE5=06.Nina Simone-My Baby Just Cares For Me
TTITLE6=07.Dinah Washington-Call Me Irresponsible
TTITLE7=08.Nat King Cole-Unforgettable
TTITLE8=09.Stan Getz and Charlie Byrd-Desafinado
TTITLE9=10.Holly Cole Trio-I Can See Clearly Now
TTITLE10=11.Incognito-Don't You Worry About A Thing
TTITLE11=12.Dianne Reeves-Embraceable You
TTITLE12=13.Eliane Elias-Garota de Ipanema
TTITLE13=14.US3-Cantaloop
TTITLE14=15.Billie Holiday-Let's Call The Whole Thing Off
TTITLE15=16.Chet Baker-My Funny Valentine
TTITLE16=17.Louis Armstrong-What A Wonderful World
EXTD=¦X¿è YEAR: 2002
EXTT0=
EXTT1=
EXTT2=
EXTT3=
EXTT4=
EXTT5=
EXTT6=
EXTT7=
EXTT8=
EXTT9=
EXTT10=
EXTT11=
EXTT12=
EXTT13=
EXTT14=
EXTT15=
EXTT16=
PLAYORDER=
